<svg width="64" height="18" viewBox="0 0 64 18" fill="none" xmlns="http://www.w3.org/2000/svg">
<path d="M5.6799 17H7.7099V2.32001H12.4999V0.500012H0.899902V2.32001H5.6799V17Z" fill="#12182F"/>
<path d="M26.5638 17.32C27.7171 17.32 28.7971 17.1 29.8038 16.66C30.8105 16.22 31.6938 15.61 32.4538 14.83C33.2138 14.0433 33.8071 13.1333 34.2338 12.1C34.6671 11.06 34.8838 9.94668 34.8838 8.76001C34.8838 7.56668 34.6671 6.45335 34.2338 5.42001C33.8071 4.38668 33.2138 3.48001 32.4538 2.70001C31.6938 1.91335 30.8105 1.30001 29.8038 0.860012C28.7971 0.420012 27.7171 0.200012 26.5638 0.200012C25.4105 0.200012 24.3305 0.420012 23.3238 0.860012C22.3171 1.30001 21.4338 1.91335 20.6738 2.70001C19.9138 3.48001 19.3171 4.38668 18.8838 5.42001C18.4571 6.45335 18.2438 7.56668 18.2438 8.76001C18.2438 9.94668 18.4571 11.06 18.8838 12.1C19.3171 13.1333 19.9138 14.0433 20.6738 14.83C21.4338 15.61 22.3171 16.22 23.3238 16.66C24.3305 17.1 25.4105 17.32 26.5638 17.32ZM26.5638 15.36C25.6971 15.36 24.8905 15.1933 24.1438 14.86C23.4038 14.5267 22.7538 14.0633 22.1938 13.47C21.6405 12.87 21.2071 12.17 20.8938 11.37C20.5871 10.5633 20.4338 9.69335 20.4338 8.76001C20.4338 7.82668 20.5871 6.96001 20.8938 6.16001C21.2071 5.35335 21.6405 4.65335 22.1938 4.06001C22.7538 3.46001 23.4038 2.99335 24.1438 2.66001C24.8905 2.32668 25.6971 2.16001 26.5638 2.16001C27.4305 2.16001 28.2338 2.32668 28.9738 2.66001C29.7205 2.99335 30.3705 3.46001 30.9238 4.06001C31.4838 4.65335 31.9171 5.35335 32.2238 6.16001C32.5371 6.96001 32.6938 7.82668 32.6938 8.76001C32.6938 9.69335 32.5371 10.5633 32.2238 11.37C31.9171 12.17 31.4838 12.87 30.9238 13.47C30.3705 14.0633 29.7205 14.5267 28.9738 14.86C28.2338 15.1933 27.4305 15.36 26.5638 15.36Z" fill="#12182F"/>
<path d="M42.9427 17H44.9727V10.21H47.6227C48.7027 10.21 49.6427 10.0067 50.4427 9.60001C51.2427 9.19335 51.8627 8.62001 52.3027 7.88001C52.7494 7.13335 52.9727 6.26001 52.9727 5.26001C52.9727 4.24668 52.7494 3.38668 52.3027 2.68001C51.8627 1.97335 51.2427 1.43335 50.4427 1.06001C49.6427 0.686679 48.7027 0.500012 47.6227 0.500012H42.9427V17ZM44.9727 8.54001V2.14001H47.0727C48.1927 2.14001 49.106 2.41001 49.8127 2.95001C50.5194 3.48335 50.8727 4.27001 50.8727 5.31001C50.8727 6.33668 50.5194 7.13335 49.8127 7.70001C49.106 8.26001 48.1927 8.54001 47.0727 8.54001H44.9727Z" fill="#12182F"/>
<path d="M64 15C64 16.1046 63.1046 17 62 17C60.8954 17 60 16.1046 60 15C60 13.8954 60.8954 13 62 13C63.1046 13 64 13.8954 64 15Z" fill="#CF0101"/>
</svg>
